<svg xmlns="http://www.w3.org/2000/svg" width="1024" height="1024" viewBox="0 0 1024 1024" version="1.1">
	<path fill-opacity="0.133" d="M 206.515 101.975 C 206.167 102.539, 202.624 103, 198.641 103 C 194.658 103, 190.906 103.494, 190.303 104.097 C 189.700 104.700, 186.572 105.581, 183.353 106.054 C 177.506 106.913, 167.834 109.124, 165 110.251 C 164.175 110.578, 160.125 111.847, 156 113.070 C 132.318 120.092, 98.882 136.452, 80.481 150.021 C 65.296 161.218, 50.592 175.855, 42.326 188 C 37.567 194.993, 32.535 205.598, 29.040 216 C 26.163 224.565, 25.883 226.435, 26.205 235 C 26.522 243.433, 26.947 245.270, 29.992 251.356 C 33.611 258.592, 38.283 263.130, 45.500 266.421 C 47.700 267.424, 50.774 268.865, 52.331 269.622 C 55.800 271.310, 81.514 271.596, 82.526 269.958 C 82.880 269.385, 84.931 268.211, 87.083 267.350 C 92.359 265.239, 100.074 256.556, 102.250 250.279 C 103.565 246.487, 104 242.029, 104 232.359 C 104 225.279, 104.478 217.915, 105.063 215.993 C 105.647 214.072, 106.498 210.250, 106.953 207.500 C 109.567 191.699, 119.530 173.636, 133.090 160.113 C 146.026 147.214, 164.437 135.840, 181 130.518 C 184.025 129.546, 188.315 128.132, 190.533 127.375 C 192.752 126.619, 195.760 126, 197.218 126 C 198.677 126, 201.137 125.497, 202.685 124.883 C 206.651 123.310, 245.798 123.345, 253.500 124.929 C 260.769 126.424, 269.776 128.838, 272.500 130.022 C 273.600 130.500, 276.750 131.873, 279.500 133.073 C 292.512 138.750, 308.866 152.332, 317.442 164.584 C 321.797 170.806, 327.543 181.993, 330.501 190.011 C 332.205 194.629, 333.083 197.839, 335.013 206.500 C 335.626 209.250, 336.549 212.882, 337.064 214.571 C 337.579 216.260, 338 220.895, 338 224.871 C 338 229.399, 338.571 233.203, 339.528 235.054 C 340.821 237.555, 341.011 242.726, 340.762 268.754 C 340.363 310.464, 339.475 314.013, 328.940 316.011 C 326.138 316.543, 323.472 317.208, 323.016 317.490 C 322.560 317.772, 319.558 318.431, 316.344 318.955 C 313.130 319.479, 307.350 320.630, 303.500 321.512 C 299.650 322.395, 294.079 323.556, 291.120 324.093 C 288.162 324.629, 284.929 325.503, 283.936 326.034 C 282.944 326.565, 281.032 327, 279.688 327 C 278.344 327, 275.629 327.675, 273.654 328.500 C 271.680 329.325, 268.340 330, 266.232 330 C 264.124 330, 261.973 330.403, 261.450 330.895 C 260.376 331.906, 252.505 333.918, 246.500 334.717 C 244.300 335.010, 241.612 335.868, 240.527 336.625 C 239.443 337.381, 237.193 338.016, 235.527 338.035 C 233.862 338.055, 231.375 338.714, 230 339.500 C 228.625 340.286, 226.064 340.945, 224.309 340.965 C 222.554 340.984, 220.840 341.450, 220.500 342 C 220.160 342.550, 219.024 343, 217.976 343 C 216.928 343, 213.917 343.676, 211.285 344.501 C 208.653 345.327, 204.025 346.700, 201 347.553 C 190.975 350.379, 186.623 351.686, 173 355.961 C 165.575 358.292, 157.925 360.797, 156 361.529 C 154.075 362.262, 147.325 364.734, 141 367.023 C 129.098 371.331, 117.794 375.786, 110 379.240 C 103.840 381.970, 75.950 395.794, 73.585 397.289 C 33.745 422.485, 14.396 444.671, 3.630 477.500 C 2.728 480.250, 1.992 485.087, 1.995 488.250 C 1.998 491.420, 1.551 494, 1 494 C -0.345 494, -0.345 521.669, 1 522.500 C 1.550 522.840, 2 524.964, 2 527.221 C 2 529.478, 2.728 533.839, 3.618 536.912 C 12.500 567.588, 31.675 591.427, 58.668 605.353 C 70.259 611.333, 78.347 614.211, 97 618.995 C 113.497 623.225, 170.039 623.328, 180.315 619.146 C 181.863 618.516, 184.278 618, 185.681 618 C 187.084 618, 190.317 617.358, 192.866 616.574 C 195.415 615.790, 200.200 614.381, 203.500 613.442 C 212.098 610.998, 218.352 608.799, 219.450 607.835 C 219.972 607.376, 221.097 606.996, 221.950 606.992 C 224.332 606.979, 246.493 595.443, 254.603 589.995 C 282.941 570.958, 309.260 544.091, 331.006 512 C 336.612 503.727, 339.071 500.926, 340.145 501.590 C 340.615 501.880, 341 508.130, 341 515.478 C 341 524.512, 341.523 530.881, 342.616 535.148 C 343.615 539.045, 344.029 543.428, 343.700 546.614 C 343.342 550.088, 343.641 552.682, 344.618 554.565 C 345.416 556.103, 346.344 559.993, 346.680 563.211 C 347.016 566.429, 347.676 569.300, 348.146 569.590 C 348.616 569.880, 349 571.117, 349 572.337 C 349 575.314, 355.291 588.287, 359.212 593.394 C 364.703 600.547, 372.588 606.576, 381.500 610.435 C 383.700 611.387, 386.978 612.804, 388.784 613.583 C 390.590 614.363, 393.192 615, 394.566 615 C 395.940 615, 398.680 615.675, 400.654 616.500 C 405.792 618.647, 439.915 618.647, 446 616.500 C 448.338 615.675, 451.484 615, 452.990 615 C 457.169 615, 474.784 608.772, 482.567 604.542 C 496.408 597.020, 503 590.241, 503 583.528 C 503 580.675, 502.516 579.766, 500.607 579.041 C 497.424 577.831, 494.857 578.403, 485.716 582.361 C 482.978 583.547, 478.927 584, 471.059 584 C 461.149 584, 459.599 583.736, 453.551 581.023 C 441.986 575.834, 434.816 567.112, 430.515 553 C 429.593 549.975, 428.425 546.466, 427.920 545.203 C 427.414 543.940, 427 540.197, 427 536.887 C 427 533.577, 426.511 529.955, 425.914 528.838 C 425.149 527.410, 424.779 485.998, 424.664 389.058 C 424.522 270.002, 424.302 251.070, 423.042 249.551 C 422.126 248.447, 421.513 245.219, 421.395 240.873 C 421.291 237.067, 420.750 233.401, 420.192 232.726 C 419.635 232.052, 418.864 229.700, 418.478 227.500 C 416.694 217.321, 408.958 196.542, 402.282 184 C 399.793 179.325, 394.923 171.450, 391.458 166.500 C 384.763 156.934, 367.741 139.506, 359.601 133.884 C 356.907 132.023, 352.896 129.223, 350.689 127.663 C 345.653 124.104, 327.142 114.835, 320.500 112.546 C 317.750 111.598, 314.719 110.413, 313.764 109.911 C 312.809 109.410, 311.234 108.997, 310.264 108.994 C 309.294 108.990, 307.211 108.315, 305.636 107.494 C 304.060 106.672, 301.428 106, 299.787 106 C 298.145 106, 295.384 105.350, 293.651 104.555 C 288.996 102.421, 280.207 101.884, 241.824 101.394 C 218.752 101.099, 206.937 101.293, 206.515 101.975 M 771 101.976 C 770.175 102.513, 766.253 102.895, 762.285 102.825 C 757.781 102.745, 754.500 103.170, 753.554 103.955 C 752.720 104.647, 749.442 105.582, 746.269 106.032 C 725.892 108.925, 685.406 125.836, 662.500 141.024 C 636.527 158.244, 612.233 181.790, 595.603 205.859 C 582.660 224.592, 569.913 248.106, 564.414 263.394 C 558.485 279.878, 555.280 290.396, 552.651 302 C 548.911 318.506, 548.082 322.937, 547.597 329 C 547.312 332.575, 546.143 339.031, 545 343.346 C 543.156 350.309, 542.960 353.456, 543.255 371.346 C 543.517 387.222, 544.043 393.623, 545.731 401.500 C 546.910 407, 548.645 416, 549.587 421.500 C 559.889 481.666, 593.874 538.671, 640.536 574.056 C 662.385 590.625, 680.335 599.864, 708.500 609.041 C 713.450 610.654, 719.585 612.655, 722.134 613.487 C 724.683 614.319, 727.891 615, 729.262 615 C 730.634 615, 733.371 615.675, 735.346 616.500 C 737.320 617.325, 741.230 618, 744.034 618 C 746.837 618, 750.114 618.530, 751.316 619.179 C 753.958 620.605, 776.998 622.305, 793.500 622.291 C 809.211 622.278, 835.167 620.633, 836.939 619.538 C 837.707 619.063, 841.297 618.366, 844.917 617.989 C 848.538 617.611, 853.750 616.741, 856.500 616.054 C 859.250 615.367, 864.200 614.139, 867.500 613.324 C 898.393 605.699, 922.145 594.143, 947.594 574.352 C 956.681 567.286, 980.363 543.319, 986.988 534.484 C 997.363 520.650, 1006 507.768, 1006 506.130 C 1006 503.771, 1001.171 499.308, 997.686 498.447 C 995.135 497.816, 993.967 498.625, 985.163 507.126 C 979.823 512.282, 974.339 517.387, 972.977 518.470 C 971.615 519.554, 968.025 522.463, 965 524.935 C 961.975 527.408, 955.225 532.482, 950 536.211 C 944.775 539.940, 940.050 543.343, 939.500 543.774 C 937.659 545.215, 924.678 552.503, 914 558.091 C 902.531 564.093, 879.013 571.490, 866.500 573.031 C 863.200 573.437, 859.375 574.173, 858 574.667 C 853.936 576.126, 803.351 575.750, 801.850 574.250 C 801.163 573.563, 798.613 573, 796.184 573 C 793.756 573, 789.683 572.348, 787.134 571.552 C 784.585 570.755, 779.800 569.342, 776.500 568.411 C 764.608 565.056, 761.866 563.944, 745.500 555.837 C 728.162 547.249, 719.794 541.721, 704 528.419 C 680.529 508.651, 659.719 477.367, 648.512 445 C 644.295 432.818, 638.005 408.534, 637.988 404.363 C 637.982 402.788, 637.312 399.025, 636.500 396 C 635.688 392.975, 635.017 387.350, 635.008 383.500 C 634.999 379.650, 634.327 372.450, 633.514 367.500 C 631.530 355.425, 631.569 344.710, 633.614 340.401 L 635.228 337 777.364 336.786 C 931.909 336.554, 1019.418 336.317, 1022.401 336.123 C 1024.216 336.006, 1024.268 335.290, 1023.570 320.250 C 1023.167 311.587, 1022.897 302.359, 1022.970 299.742 C 1023.050 296.867, 1022.488 294.107, 1021.551 292.769 C 1020.600 291.411, 1020 288.398, 1020 284.977 C 1020 281.910, 1019.482 278.882, 1018.849 278.249 C 1018.216 277.616, 1017.341 275.163, 1016.906 272.799 C 1015.635 265.906, 1013.561 258.227, 1012.749 257.416 C 1012.337 257.004, 1012 255.797, 1012 254.734 C 1012 253.672, 1011.386 251.384, 1010.636 249.651 C 1009.886 247.918, 1008.536 244.588, 1007.636 242.250 C 1003.786 232.248, 1002.241 228.848, 996.167 217 C 976.660 178.956, 952.043 151.863, 918.504 131.525 C 905.632 123.720, 894.955 118.541, 882.500 114.063 C 877.550 112.283, 872.719 110.416, 871.764 109.913 C 870.809 109.411, 869.009 108.997, 867.764 108.994 C 866.519 108.990, 864.211 108.315, 862.636 107.494 C 861.060 106.672, 858.203 106, 856.287 106 C 854.370 106, 851.384 105.350, 849.651 104.555 C 845.128 102.481, 836.357 101.898, 802.500 101.421 C 783.907 101.159, 771.930 101.370, 771 101.976 M 778.500 135.459 C 776.300 136.222, 773.118 136.881, 771.428 136.923 C 769.739 136.965, 766.364 137.628, 763.928 138.396 C 761.493 139.163, 756.800 140.574, 753.500 141.531 C 745.641 143.810, 730.844 150.747, 720.647 156.933 C 678.975 182.214, 650.221 228.369, 639.617 287 C 637.070 301.082, 636.469 311.050, 638.103 312.085 C 638.896 312.587, 701.033 312.976, 781.726 312.985 C 919.707 313, 924.045 312.943, 927.076 311.100 C 933.058 307.462, 934 304.514, 934 289.426 C 934 279.936, 933.590 275.095, 932.627 273.200 C 931.872 271.715, 931.221 267.622, 931.181 264.104 C 931.141 260.587, 930.634 257.234, 930.054 256.654 C 929.475 256.075, 929 253.942, 929 251.915 C 929 249.888, 928.300 245.815, 927.444 242.865 C 926.588 239.914, 925.190 235.025, 924.336 232 C 921.568 222.185, 914.836 205.683, 910.406 197.855 C 903.254 185.216, 897.641 177.911, 887.829 168.472 C 869.406 150.751, 850.723 141.428, 823 136.122 C 813.528 134.309, 783.123 133.856, 778.500 135.459 M 333 334.500 C 331.075 335.241, 328.150 335.885, 326.500 335.930 C 324.850 335.975, 322.211 336.685, 320.636 337.506 C 319.060 338.328, 316.443 339, 314.820 339 C 313.197 339, 310.944 339.495, 309.814 340.100 C 308.684 340.704, 305.901 341.409, 303.629 341.666 C 301.358 341.922, 299.072 342.552, 298.550 343.066 C 298.027 343.580, 296.296 344, 294.701 344 C 293.107 344, 290.384 344.640, 288.651 345.422 C 286.918 346.204, 283.925 347.067, 282 347.339 C 278.210 347.875, 270.712 349.793, 267.500 351.048 C 265.638 351.775, 262.554 352.612, 252.500 355.118 C 250.300 355.666, 248.072 356.539, 247.550 357.057 C 247.027 357.576, 245.738 358, 244.684 358 C 242.952 358, 235.638 360.105, 230.500 362.082 C 229.400 362.505, 222.200 364.939, 214.500 367.490 C 206.800 370.042, 199.600 372.523, 198.500 373.004 C 197.400 373.484, 190.875 376.193, 184 379.023 C 149.240 393.330, 128.179 406.115, 110.608 423.572 C 96.933 437.158, 90.665 446.900, 85.423 462.713 C 83.005 470.005, 82.837 471.772, 82.775 490.502 C 82.723 506.251, 83.074 511.961, 84.426 517.351 C 91.453 545.371, 110.484 566.529, 138.581 577.560 C 143.401 579.452, 148.954 581.014, 150.922 581.032 C 152.890 581.049, 155.374 581.724, 156.441 582.532 C 159.227 584.639, 197.306 584.612, 201 582.500 C 202.375 581.714, 204.990 581.055, 206.812 581.035 C 210.161 581, 219.043 578.634, 222.236 576.928 C 223.191 576.418, 224.612 576, 225.393 576 C 226.788 576, 238.745 571.019, 242.323 568.947 C 243.326 568.366, 245.801 566.985, 247.823 565.877 C 249.846 564.770, 252.850 562.999, 254.500 561.943 C 256.150 560.886, 258.175 559.705, 259 559.317 C 259.825 558.929, 261.134 557.985, 261.910 557.218 C 262.685 556.451, 265.072 554.717, 267.215 553.364 C 277.979 546.569, 301.696 520.536, 312.227 503.955 C 324.460 484.696, 336 455.323, 336 443.444 C 336 441.065, 336.450 438.840, 337 438.500 C 337.562 438.153, 338 433.376, 338 427.600 C 338 421.358, 338.585 415.389, 339.489 412.409 C 340.689 408.453, 340.980 400.471, 340.989 371.285 C 341 336.498, 340.924 335.030, 339.066 334.035 C 338.002 333.466, 336.989 333.034, 336.816 333.076 C 336.642 333.118, 334.925 333.759, 333 334.500 M 644.180 812.969 C 641.254 814.582, 635.904 818.667, 632.291 822.046 C 619.936 833.604, 602.020 843.590, 579 851.749 C 571.396 854.444, 566.705 855.870, 555 859.045 C 546.926 861.234, 537.632 863, 534.181 863 C 532.149 863, 528.915 863.515, 526.993 864.144 C 524.886 864.834, 513.980 865.404, 499.500 865.582 C 462.980 866.030, 461.267 865.986, 456.211 864.451 C 453.620 863.665, 449.302 863.017, 446.616 863.011 C 443.930 863.005, 440.105 862.573, 438.116 862.052 C 436.127 861.530, 430.450 860.196, 425.500 859.087 C 412.341 856.139, 396.399 850.729, 382 844.327 C 373.594 840.589, 360.668 833.738, 358.143 831.682 C 353.205 827.662, 339.980 822, 335.528 822 C 332.997 822, 327.394 824.521, 324.644 826.896 C 318.473 832.227, 317.033 845.185, 321.609 854.214 C 323.043 857.045, 326.321 861.444, 328.893 863.989 C 334.787 869.822, 348.374 879.952, 357.500 885.318 C 361.350 887.582, 364.725 889.674, 365 889.967 C 365.825 890.846, 389.081 901.772, 395 904.060 C 408.430 909.253, 420.898 913.031, 431.500 915.118 C 434.250 915.660, 437.857 916.726, 439.517 917.488 C 441.335 918.322, 444.130 918.658, 446.552 918.333 C 449.245 917.972, 451.880 918.379, 454.536 919.567 C 457.559 920.918, 461.942 921.435, 473 921.741 C 503.979 922.600, 527.150 921.949, 529.308 920.159 C 530.198 919.421, 533.755 918.573, 537.213 918.276 C 540.671 917.978, 543.950 917.384, 544.500 916.957 C 545.050 916.529, 547.300 915.875, 549.500 915.504 C 555.406 914.508, 578.726 906.521, 589.295 901.874 C 622.097 887.454, 653.221 865.500, 664.963 848.500 C 671.956 838.377, 674.893 827.816, 671.500 825 C 670.675 824.315, 670 823.317, 670 822.782 C 670 818.649, 658.148 810.011, 652.500 810.027 C 650.850 810.032, 647.106 811.356, 644.180 812.969" stroke="none" fill="black" fill-rule="evenodd"/>
	<path fill-opacity="0.398" d="M 209.613 102.157 C 208.575 102.759, 204.075 103.605, 199.613 104.036 C 195.151 104.467, 189.250 105.336, 186.500 105.967 C 171.505 109.409, 167.430 110.513, 156.044 114.216 C 101.015 132.114, 60.192 160.207, 39.655 194.313 C 32.105 206.851, 27 222.766, 27 233.765 C 27 240.880, 27.419 242.797, 30.372 249.195 C 34.833 258.861, 42.403 265.612, 50.865 267.470 C 52.577 267.846, 54.234 268.569, 54.548 269.077 C 54.861 269.585, 60.597 270, 67.293 270 C 78.947 270, 79.738 269.865, 85.814 266.844 C 93.502 263.021, 98.509 257.363, 101.688 248.907 C 103.675 243.621, 104 240.911, 103.997 229.628 C 103.993 208.444, 109.823 188.902, 121.106 172.282 C 126.866 163.798, 143.032 148.983, 153.659 142.450 C 166.562 134.517, 183.258 127.740, 197.228 124.763 C 204.207 123.276, 250.793 123.276, 257.772 124.763 C 278.118 129.098, 292.087 136.919, 308.062 152.920 C 318.614 163.488, 320.077 165.418, 324.797 175 C 332.497 190.629, 337.721 208.973, 338.895 224.500 C 339.228 228.900, 339.886 233.098, 340.358 233.830 C 340.831 234.561, 341.325 249.186, 341.456 266.330 C 341.638 290.020, 341.375 298.580, 340.359 302 C 339.623 304.475, 339.017 307.659, 339.011 309.076 C 338.989 314.324, 335.347 316.104, 318.598 319.053 C 315.351 319.625, 311.893 320.522, 310.913 321.046 C 309.933 321.571, 307.781 322, 306.131 322 C 304.480 322, 301.863 322.494, 300.315 323.097 C 298.767 323.700, 295.250 324.580, 292.500 325.053 C 289.750 325.526, 284.575 326.636, 281 327.520 C 277.425 328.404, 271.575 329.789, 268 330.599 C 258.224 332.812, 255.070 333.602, 248.500 335.483 C 239.677 338.009, 231.966 340.049, 228 340.907 C 226.075 341.323, 222.925 342.148, 221 342.740 C 217.570 343.794, 212.516 345.249, 200.500 348.639 C 183.060 353.560, 147.060 365.579, 130.500 372.009 C 83.013 390.449, 55 407.413, 32.124 431.586 C 14.250 450.472, 3.958 470.564, 2.733 488.961 C 2.455 493.148, 1.746 496.585, 1.118 496.794 C -0.309 497.270, -0.431 517.688, 0.990 518.167 C 1.535 518.350, 2.237 521.425, 2.550 525 C 3.849 539.824, 11.073 558.025, 21.037 571.580 C 37.482 593.952, 58.383 607.515, 89.500 616.007 C 99.297 618.681, 103.417 619.441, 111.500 620.068 C 116.450 620.452, 125.616 621.312, 131.868 621.979 C 141.599 623.018, 144.596 622.962, 152.683 621.596 C 157.879 620.718, 164.970 620, 168.440 620 C 171.909 620, 176.662 619.325, 179 618.500 C 181.338 617.675, 184.348 617, 185.688 617 C 187.028 617, 190.459 616.298, 193.312 615.440 C 196.165 614.582, 200.300 613.411, 202.500 612.837 C 247.957 600.977, 292.481 565.722, 329.736 512.088 C 337.043 501.570, 338.963 499.607, 340.484 501.101 C 341.025 501.633, 341.539 508.240, 341.627 515.784 C 341.714 523.328, 342.284 530.767, 342.893 532.315 C 343.502 533.863, 344 538.649, 344 542.951 C 344 547.943, 344.540 551.807, 345.494 553.636 C 346.315 555.211, 347.010 558.075, 347.038 560 C 347.065 561.925, 347.736 565.300, 348.529 567.500 C 349.321 569.700, 349.977 572.235, 349.985 573.134 C 349.993 574.033, 351.871 578.508, 354.159 583.078 C 359.659 594.066, 368.584 603.079, 379 608.163 C 393.545 615.263, 402.222 616.998, 423.235 617.008 C 440.002 617.017, 443.423 616.605, 458.500 612.766 C 482.070 606.765, 501.982 593.573, 501.996 583.950 C 502.004 578.400, 498.535 577.738, 490.186 581.695 C 484.945 584.179, 483.482 584.394, 471.500 584.445 C 459.409 584.496, 458.098 584.312, 452.747 581.804 C 441.985 576.760, 433.812 566.959, 429.978 554.500 C 429.301 552.300, 428.129 548.685, 427.373 546.467 C 426.618 544.248, 426 540.340, 426 537.782 C 426 535.223, 425.516 531.863, 424.925 530.315 C 424.174 528.351, 423.883 486.167, 423.962 390.773 C 424.060 273.039, 423.874 253.656, 422.623 251.238 C 421.824 249.694, 420.722 245.071, 420.174 240.965 C 416.969 216.957, 407.322 192.193, 392.140 169 C 384.915 157.963, 366.288 139.354, 354.775 131.671 C 332.189 116.598, 305.848 106.429, 283.008 103.965 C 278.338 103.461, 274.363 102.588, 274.175 102.025 C 273.687 100.562, 212.141 100.688, 209.613 102.157 M 774.236 102.164 C 773.571 102.829, 769.502 103.408, 764.752 103.513 C 760.176 103.615, 755.548 104.164, 754.466 104.733 C 753.385 105.302, 750.475 106.085, 748 106.472 C 738.050 108.031, 717.403 114.730, 701.128 121.682 C 659.466 139.477, 623.313 168.556, 597.240 205.242 C 578.284 231.914, 563.501 263.059, 556.059 292 C 551.597 309.350, 550.008 317.187, 548.961 327 C 548.521 331.125, 547.450 337.792, 546.580 341.815 C 544.137 353.126, 544.376 386.718, 546.997 400.215 C 548.095 405.872, 548.995 411.758, 548.997 413.294 C 548.999 414.831, 549.688 419.106, 550.529 422.794 C 551.369 426.483, 552.768 432.650, 553.638 436.500 C 561.255 470.240, 578.001 504.290, 602.643 536.144 C 607.972 543.033, 632.636 567.026, 640.996 573.453 C 655.705 584.762, 678.468 597.392, 695 603.416 C 699.125 604.919, 704.075 606.732, 706 607.443 C 718.024 611.889, 733.081 615.597, 744.708 616.976 C 748.672 617.446, 752.497 618.196, 753.208 618.643 C 754.822 619.659, 778.996 621.265, 793 621.287 C 810.039 621.313, 831.131 619.913, 836.432 618.404 C 839.144 617.632, 843.239 617, 845.532 617 C 847.825 617, 851.006 616.590, 852.601 616.089 C 854.195 615.588, 859.550 614.257, 864.500 613.131 C 894.246 606.365, 918.837 594.790, 944.500 575.475 C 953.391 568.783, 978.275 544.345, 984.080 536.605 C 986.511 533.363, 990.219 528.413, 992.321 525.605 C 998.654 517.143, 1005 507.193, 1005 505.728 C 1005 503.731, 1000.956 500.262, 997.682 499.449 C 995.111 498.810, 993.929 499.657, 984.181 509.125 C 962.618 530.068, 940.115 546.167, 915.151 558.511 C 910.393 560.864, 904.475 563.468, 902 564.300 C 899.525 565.131, 896.375 566.255, 895 566.799 C 892.462 567.803, 884.779 570.046, 877.478 571.914 C 865.961 574.862, 858.318 575.432, 830.500 575.419 C 800.591 575.404, 796.075 574.957, 781 570.517 C 777.975 569.626, 773.925 568.531, 772 568.084 C 762.315 565.832, 739.436 554.992, 726 546.288 C 682.367 518.022, 654.232 476.481, 640.023 419.342 C 638.361 412.655, 636.995 405.905, 636.988 404.342 C 636.982 402.779, 636.312 399.025, 635.500 396 C 634.688 392.975, 634.018 387.877, 634.012 384.670 C 634.005 381.464, 633.278 373.364, 632.395 366.670 C 630.500 352.290, 631.058 340.498, 633.762 337.794 C 635.414 336.142, 646.091 336.041, 827.323 335.972 C 947.574 335.926, 1020.081 335.540, 1021.667 334.936 C 1024.189 333.978, 1024.196 333.941, 1023.582 324.737 C 1023.242 319.657, 1022.705 311, 1022.387 305.500 C 1022.069 300, 1021.361 294.954, 1020.813 294.287 C 1020.265 293.620, 1019.573 290.245, 1019.276 286.787 C 1018.978 283.329, 1018.403 280.050, 1017.997 279.500 C 1017.592 278.950, 1016.950 276.700, 1016.570 274.500 C 1016.190 272.300, 1015.477 269.150, 1014.984 267.500 C 1014.492 265.850, 1013.365 262.025, 1012.480 259 C 1002.300 224.212, 976.318 180.535, 952.399 158 C 929.030 135.983, 896.158 117.844, 863 108.668 C 850.916 105.324, 844.191 103.986, 837.680 103.632 C 833.929 103.427, 830.352 102.752, 829.730 102.130 C 828.115 100.515, 775.853 100.547, 774.236 102.164 M 775.500 134.968 C 773.850 135.417, 769.125 136.540, 765 137.463 C 748.682 141.116, 728.787 149.858, 714.216 159.778 C 705.144 165.954, 690.720 178.237, 686.549 183.338 C 666.748 207.556, 655.845 226.780, 647.124 252.854 C 641.982 268.228, 637.588 289.519, 636.624 303.732 C 636.122 311.125, 636.259 312.068, 637.967 312.982 C 639.231 313.659, 687.531 314, 782.066 314 L 924.264 314 927.663 311.899 C 933.491 308.297, 934.757 304.336, 934.777 289.635 C 934.787 282.560, 934.328 275.360, 933.757 273.635 C 933.187 271.911, 932.362 267.350, 931.924 263.500 C 930.830 253.886, 928.181 241.785, 924.042 227.500 C 921.463 218.597, 914.781 203.378, 909.616 194.643 C 897.488 174.128, 881.718 158.632, 862 147.851 C 855.021 144.036, 838.696 138.340, 827.500 135.814 C 821.559 134.474, 779.809 133.794, 775.500 134.968 M 331.758 333.575 C 331.206 334.127, 322.931 336.193, 314.500 337.884 C 312.300 338.325, 308.475 339.246, 306 339.931 C 299.485 341.734, 292.892 343.467, 281 346.503 C 275.225 347.978, 268.250 349.858, 265.500 350.682 C 262.750 351.506, 258.475 352.758, 256 353.464 C 231.580 360.434, 194.013 373.227, 182.443 378.514 C 180.762 379.282, 175.587 381.531, 170.943 383.513 C 159.997 388.183, 143.904 396.776, 134.893 402.762 C 130.970 405.368, 126.127 408.568, 124.130 409.874 C 122.134 411.179, 115.951 416.848, 110.391 422.471 C 96.051 436.973, 89.675 446.855, 84.427 462.713 C 82.119 469.685, 81.805 472.462, 81.419 489.254 C 81.035 505.959, 81.218 508.896, 83.096 516.138 C 91.030 546.749, 110.638 568.437, 139.904 578.974 C 144.526 580.638, 149.251 582.007, 150.404 582.015 C 151.557 582.023, 154.300 582.648, 156.500 583.405 C 161.410 585.095, 199.574 584.834, 202.836 583.088 C 203.954 582.490, 206.075 582, 207.550 582 C 214.935 582, 242.264 570.995, 255.500 562.691 C 270.285 553.415, 291.832 533.412, 303.691 517.954 C 315.108 503.073, 325.353 483.907, 330.929 467 C 335.874 452.006, 335.998 451.547, 336.044 447.929 C 336.068 446.043, 336.736 442.700, 337.529 440.500 C 338.382 438.131, 338.991 432.627, 339.021 427 C 339.048 421.775, 339.723 414.800, 340.520 411.500 C 341.633 406.890, 341.972 397.827, 341.984 372.375 C 341.993 354.156, 341.719 337.844, 341.375 336.125 C 340.794 333.219, 340.455 333, 336.542 333 C 334.227 333, 332.074 333.259, 331.758 333.575 M 644.500 813.891 C 641.750 815.471, 636.155 819.765, 632.066 823.435 C 609.767 843.448, 571.758 858.659, 527.248 865.382 C 514.801 867.263, 510.150 867.604, 507.388 866.841 C 505.257 866.253, 498.404 866.104, 490.640 866.477 C 469.467 867.494, 465.051 867.387, 454.500 865.606 C 449 864.677, 441.800 863.461, 438.500 862.904 C 410.765 858.221, 380.814 846.698, 354 830.393 C 349.325 827.551, 343.193 824.653, 340.373 823.955 C 335.886 822.844, 334.698 822.903, 330.873 824.431 C 325.294 826.660, 324.277 827.537, 321.927 832.143 C 319.062 837.758, 319.288 847.680, 322.420 853.783 C 326.524 861.781, 339.921 873.378, 357.607 884.242 C 379.097 897.443, 400.465 906.315, 427.500 913.264 C 430.800 914.112, 435.525 915.337, 438 915.986 C 440.475 916.636, 445.200 917.372, 448.500 917.622 C 451.800 917.872, 456.090 918.692, 458.033 919.444 C 463.021 921.373, 524.136 921.483, 527.929 919.569 C 529.343 918.856, 532.975 917.964, 536 917.588 C 539.025 917.212, 542.850 916.502, 544.500 916.010 C 546.150 915.518, 551.100 914.137, 555.500 912.940 C 601.730 900.367, 656.108 866.105, 667.339 842.474 C 668.900 839.188, 670.588 835.719, 671.089 834.764 C 675.182 826.962, 662.529 810.975, 652.290 811.009 C 650.755 811.015, 647.250 812.311, 644.500 813.891" stroke="none" fill="black" fill-rule="evenodd"/>
	<path fill-opacity="0.609" d="M 211.774 102.178 C 211.538 102.886, 208.005 103.617, 202.941 104.007 C 198.298 104.364, 193.233 105.184, 191.685 105.828 C 190.137 106.473, 187.701 107, 186.273 107 C 184.844 107, 181.386 107.649, 178.588 108.441 C 175.790 109.234, 169.900 110.863, 165.500 112.062 C 144.435 117.801, 114.888 130.446, 96.475 141.602 C 62.026 162.474, 39.186 188.397, 30.879 216.053 C 25.312 234.588, 28.447 251.467, 39.125 260.452 C 42.200 263.039, 44.188 264.080, 54.284 268.386 C 59.114 270.446, 76.287 270.621, 80.067 268.648 C 81.478 267.912, 83.786 267.020, 85.195 266.666 C 86.604 266.312, 90.198 263.621, 93.181 260.684 C 101.228 252.765, 102.988 247.184, 103.044 229.397 C 103.074 219.914, 103.545 214.230, 104.529 211.500 C 105.321 209.300, 105.977 206.278, 105.985 204.784 C 105.993 203.290, 106.634 200.590, 107.409 198.784 C 108.183 196.978, 110.302 191.938, 112.116 187.584 C 116.893 176.121, 122.066 168.705, 132.479 158.393 C 148.128 142.896, 166.223 132.568, 188 126.702 C 191.025 125.887, 195.750 124.608, 198.500 123.860 C 205.516 121.952, 249.484 121.952, 256.500 123.860 C 259.250 124.608, 263.975 125.887, 267 126.701 C 270.025 127.516, 274.875 129.266, 277.777 130.591 C 280.680 131.916, 283.311 133, 283.624 133 C 285.884 133, 301.999 145.222, 308.814 152.104 C 318.697 162.084, 324.413 171.089, 329.783 185.140 C 336.643 203.087, 337.483 206.445, 338.886 221.500 C 339.295 225.900, 340.164 230.767, 340.815 232.315 C 341.644 234.284, 342.001 244.656, 342.003 266.815 C 342.005 292.770, 341.707 299.766, 340.355 305.500 C 338.468 313.507, 335.897 317, 331.891 317 C 330.372 317, 327.863 317.494, 326.315 318.097 C 324.767 318.700, 321.250 319.587, 318.500 320.068 C 315.750 320.549, 310.125 321.655, 306 322.526 C 301.875 323.396, 296.392 324.503, 293.817 324.984 C 291.241 325.465, 288.233 326.340, 287.132 326.929 C 286.032 327.518, 283.722 328, 282 328 C 280.278 328, 277.941 328.497, 276.806 329.104 C 275.672 329.711, 272.439 330.581, 269.622 331.037 C 266.805 331.494, 261.913 332.572, 258.750 333.434 C 247.286 336.557, 241.432 338.127, 238 338.999 C 226.358 341.956, 215.360 344.892, 212 345.939 C 210.625 346.368, 207.025 347.418, 204 348.274 C 189.457 352.389, 138.040 369.699, 126.500 374.364 C 79.814 393.240, 54.504 408.795, 32.623 432.061 C 21.281 444.120, 11.654 458.317, 8.936 466.991 C 8.504 468.371, 7.188 471.975, 6.012 475 C 4.813 478.084, 3.495 484.663, 3.011 489.975 C 2.536 495.187, 1.664 499.612, 1.074 499.809 C -0.577 500.359, -0.254 513.284, 1.494 516.636 C 2.315 518.211, 2.990 521.710, 2.994 524.412 C 3.001 529.998, 4.807 536.943, 9.259 548.500 C 15.966 565.908, 28.389 582.080, 44.500 594.375 C 52.444 600.437, 71.928 610.978, 75.216 610.992 C 76.160 610.997, 78.410 611.634, 80.216 612.409 C 85.275 614.579, 93.957 617, 96.681 617 C 98.029 617, 100.091 617.514, 101.264 618.142 C 102.438 618.769, 106.570 619.352, 110.449 619.436 C 114.327 619.521, 123.030 620.215, 129.790 620.979 C 140.772 622.220, 143.432 622.188, 154.790 620.683 C 161.780 619.757, 169.750 618.804, 172.500 618.565 C 181.312 617.801, 187.193 616.553, 202 612.308 C 225.615 605.537, 246.142 594.834, 270.004 576.851 C 286.832 564.168, 314.586 533.197, 331.261 508.493 C 336.560 500.644, 339.728 497.964, 341.119 500.158 C 341.587 500.896, 341.982 507.125, 341.997 514 C 342.013 521.787, 342.580 528.574, 343.500 532 C 344.312 535.025, 344.982 540.672, 344.988 544.550 C 344.995 548.427, 345.420 552.027, 345.933 552.550 C 346.447 553.072, 347.305 556.425, 347.841 560 C 351.392 583.702, 364.275 601.796, 383 609.379 C 385.475 610.382, 388.978 611.831, 390.784 612.601 C 392.590 613.370, 395.348 614, 396.912 614 C 398.476 614, 401.371 614.675, 403.346 615.500 C 408.465 617.639, 438.535 617.639, 443.654 615.500 C 445.629 614.675, 448.779 614, 450.654 614 C 452.530 614, 455.680 613.325, 457.654 612.500 C 459.629 611.675, 462.224 611, 463.422 611 C 464.620 611, 466.028 610.640, 466.550 610.200 C 467.073 609.760, 470.200 608.325, 473.500 607.011 C 486.944 601.657, 497.367 593.947, 500.474 587.058 C 503.766 579.757, 499.055 577.933, 489.096 582.652 C 483.966 585.082, 482.458 585.303, 471 585.297 C 458.887 585.290, 458.291 585.187, 451.740 581.981 C 440.280 576.372, 431.490 564.855, 427.952 550.816 C 423.596 533.529, 423.718 537.531, 423.094 391.500 C 422.714 302.512, 422.144 251.960, 421.510 251 C 420.966 250.175, 420.212 246.575, 419.834 243 C 417.544 221.343, 405.951 191.119, 391.852 170.048 C 383.333 157.317, 366.379 140.403, 353.500 131.786 C 338.174 121.532, 320.356 113.374, 303 108.666 C 290.270 105.213, 288.130 104.775, 280.554 104.068 C 276.015 103.645, 272.443 102.828, 272.221 102.163 C 271.662 100.487, 212.333 100.502, 211.774 102.178 M 775 102.583 C 773.567 103.379, 769.606 103.977, 765.718 103.985 C 761.986 103.993, 757.321 104.675, 755.346 105.500 C 753.371 106.325, 750.613 107, 749.216 107 C 746.546 107, 741.660 108.314, 726 113.242 C 686.491 125.676, 653.901 145.378, 624.318 174.715 C 611.180 187.743, 604.619 195.751, 592.578 213.457 C 583.534 226.758, 574.741 242.859, 569.072 256.500 C 567.244 260.900, 565.130 265.918, 564.374 267.651 C 563.618 269.384, 563 271.303, 563 271.915 C 563 272.527, 562.574 273.809, 562.053 274.764 C 561.047 276.609, 559.300 282.403, 556.555 293 C 555.628 296.575, 554.457 300.861, 553.952 302.524 C 552.830 306.220, 551.222 315.845, 549.967 326.375 C 549.451 330.706, 548.348 337.550, 547.515 341.583 C 545.442 351.619, 545.409 388.177, 547.465 398.292 C 548.270 402.256, 549.396 408.875, 549.967 413 C 551.748 425.868, 552.765 431.691, 553.836 435.155 C 554.405 436.995, 555.632 441.425, 556.563 445 C 563.913 473.234, 583.602 511.593, 602.858 535.201 C 610.144 544.133, 632.239 565.715, 640.983 572.440 C 656.378 584.281, 676.682 595.561, 696 603.005 C 707.326 607.369, 707.586 607.459, 714.500 609.431 C 717.800 610.372, 722.525 611.787, 725 612.576 C 727.475 613.365, 730.542 614.008, 731.816 614.005 C 733.089 614.002, 734.993 614.461, 736.046 615.025 C 739.962 617.120, 775.437 620.427, 793.250 620.357 C 817.650 620.261, 828.630 619.726, 833.782 618.385 C 836.705 617.623, 840.988 616.980, 843.299 616.956 C 845.609 616.932, 849.300 616.264, 851.500 615.471 C 853.700 614.679, 856.585 614.023, 857.912 614.015 C 862.508 613.986, 888.663 605.877, 900.384 600.846 C 923.958 590.729, 942.492 577.810, 964.373 556.242 C 978.973 541.851, 981.061 539.432, 993.841 522.099 C 1004.528 507.605, 1005.591 503.992, 1000.043 501.023 C 996.350 499.046, 994.383 500.071, 986.477 508.090 C 960.117 534.823, 923.987 558.036, 894 567.506 C 874.170 573.768, 873.310 574, 869.866 574.011 C 868.015 574.017, 864.291 574.692, 861.591 575.511 C 854.438 577.681, 805.544 577.672, 800.346 575.500 C 798.371 574.675, 795.184 574, 793.262 574 C 791.341 574, 787.683 573.342, 785.134 572.537 C 782.585 571.732, 777.800 570.356, 774.500 569.478 C 771.200 568.601, 767.719 567.459, 766.764 566.941 C 765.809 566.424, 764.303 566, 763.418 566 C 762.533 566, 760.614 565.391, 759.154 564.646 C 757.694 563.902, 751.277 560.734, 744.893 557.607 C 692.499 531.943, 655.789 485.068, 640.651 424.500 C 639.826 421.200, 638.610 416.475, 637.948 414 C 636.321 407.911, 635.142 399.647, 634.026 386.500 C 633.512 380.450, 632.621 373.076, 632.046 370.114 C 631.471 367.151, 631 358.956, 631 351.902 C 631 339.997, 631.157 338.932, 633.189 337.039 C 635.375 335.002, 635.538 335, 827.123 335 C 949.290 335, 1019.801 334.646, 1021.435 334.025 C 1023.637 333.187, 1024 332.444, 1024 328.768 C 1024 326.413, 1023.538 322.915, 1022.972 320.993 C 1022.407 319.072, 1021.793 312.633, 1021.607 306.685 C 1021.411 300.405, 1020.794 295.394, 1020.135 294.735 C 1019.511 294.111, 1018.980 291.553, 1018.956 289.050 C 1018.932 286.548, 1018.264 282.700, 1017.471 280.500 C 1016.679 278.300, 1016.026 275.600, 1016.020 274.500 C 1016.014 273.400, 1015.365 270.475, 1014.577 268 C 1013.789 265.525, 1011.940 259.675, 1010.468 255 C 1000.189 222.365, 975.442 181.242, 952.865 159.281 C 933.097 140.052, 899.956 120.813, 871.187 111.865 C 867.509 110.721, 862.507 109.159, 860.072 108.393 C 857.636 107.627, 854.359 107, 852.790 107 C 851.220 107, 848.320 106.325, 846.346 105.500 C 844.371 104.675, 840.223 103.997, 837.128 103.994 C 834.033 103.990, 830.211 103.315, 828.636 102.494 C 824.621 100.400, 778.797 100.476, 775 102.583 M 775.500 134.528 C 773.300 135.253, 770.235 135.881, 768.688 135.923 C 766.006 135.996, 761.578 137.156, 750.500 140.685 C 727.114 148.136, 696.916 168.690, 683.187 186.500 C 680.644 189.800, 677.955 193.125, 677.213 193.889 C 674.421 196.765, 664.071 212.887, 659.714 221.147 C 649.570 240.381, 641.844 263.931, 637.619 288.500 C 635.577 300.374, 634.989 311.589, 636.338 312.938 C 637.078 313.678, 681.135 313.999, 781.450 313.996 C 922.557 313.993, 925.565 313.953, 928.701 312.040 C 934.468 308.525, 935.371 305.318, 935.192 289 C 935.105 281.025, 934.599 272.475, 934.068 270 C 933.034 265.179, 931.249 255.320, 930.085 248 C 929.692 245.525, 928.868 241.925, 928.254 240 C 927.641 238.075, 926.377 233.800, 925.445 230.500 C 924.513 227.200, 923.357 223.719, 922.876 222.764 C 922.394 221.809, 922 220.542, 922 219.949 C 922 219.357, 920.937 216.538, 919.638 213.686 C 918.339 210.834, 916.931 207.401, 916.509 206.058 C 916.088 204.715, 914.001 200.769, 911.872 197.290 C 909.742 193.811, 908 190.769, 908 190.530 C 908 188.827, 897.246 175.336, 890.125 168.107 C 880.578 158.414, 869.523 150.497, 858.276 145.301 C 849.431 141.214, 833.541 136.014, 829.876 136.006 C 828.432 136.003, 825.338 135.325, 823 134.500 C 817.372 132.514, 781.546 132.535, 775.500 134.528 M 331 333.144 C 329.625 333.704, 326.475 334.559, 324 335.044 C 319.161 335.993, 311.106 337.959, 301.500 340.536 C 298.200 341.421, 293.499 342.566, 291.052 343.080 C 288.606 343.593, 285.231 344.429, 283.552 344.937 C 281.874 345.445, 277.800 346.609, 274.500 347.524 C 271.200 348.438, 266.475 349.767, 264 350.476 C 261.525 351.185, 257.475 352.321, 255 353 C 245.802 355.523, 200.181 370.323, 196.500 371.978 C 195.400 372.473, 189.084 375.116, 182.465 377.852 C 147.101 392.468, 127.454 404.434, 109.777 422.124 C 95.210 436.701, 89.171 446.225, 83.524 463.524 C 81.375 470.107, 80.913 473.760, 80.465 487.707 C 79.900 505.280, 80.523 510.870, 84.412 523.124 C 89.044 537.717, 95.496 548.359, 106.081 558.860 C 116.627 569.323, 127.859 576.066, 141.270 579.986 C 145.246 581.148, 150.750 582.781, 153.500 583.615 C 159.777 585.520, 199.776 585.101, 207 583.055 C 209.475 582.354, 213.975 581.118, 217 580.309 C 241.119 573.856, 264.376 559.946, 284.875 539.714 C 301.685 523.122, 311.799 509.689, 321.785 490.686 C 326.251 482.189, 334 462.494, 334 459.642 C 334 458.667, 334.468 456.994, 335.040 455.926 C 336.447 453.297, 337.932 442.974, 338.986 428.499 C 339.467 421.898, 340.342 415.232, 340.930 413.684 C 342.519 409.504, 342.399 334.799, 340.800 333.200 C 339.363 331.763, 334.463 331.735, 331 333.144 M 644.500 814.941 C 641.750 816.548, 637.025 820.150, 634 822.946 C 614.575 840.897, 576.594 857.512, 540.500 863.848 C 516.782 868.013, 510.800 868.742, 507.123 867.922 C 502.129 866.808, 484.670 866.953, 477.997 868.164 C 469.717 869.667, 436.425 864.322, 414 857.890 C 394.261 852.228, 373.680 843.090, 355.339 831.843 C 350.850 829.090, 344.551 826.026, 341.342 825.033 C 335.767 823.308, 335.305 823.305, 331.003 824.976 C 321.664 828.603, 317.303 841.115, 321.819 851.325 C 327.106 863.275, 350.172 880.991, 378.310 894.712 C 400.575 905.569, 430.280 914.824, 449.500 916.892 C 453.350 917.307, 457.483 918.175, 458.684 918.823 C 460.229 919.656, 470.214 920, 492.812 920 C 518.944 920, 525.409 919.727, 528.346 918.500 C 530.320 917.675, 533.373 917, 535.130 917 C 536.887 917, 540.614 916.354, 543.412 915.564 C 546.210 914.774, 552.775 912.922, 558 911.450 C 602.252 898.977, 655.191 865.458, 666.230 842.924 C 672.376 830.377, 672.305 830.771, 669.442 825.071 C 666.493 819.201, 664.019 816.609, 658.790 813.913 C 653.688 811.282, 650.349 811.522, 644.500 814.941" stroke="none" fill="black" fill-rule="evenodd"/>
	<path fill-opacity="0.558" d="M 212.964 102.436 C 212.146 103.239, 207.749 104.328, 203 104.904 C 195.223 105.847, 189.123 106.965, 175.587 109.926 C 172.884 110.517, 165.148 112.798, 158.395 114.995 C 146.478 118.872, 143.981 119.779, 137.349 122.641 C 135.616 123.388, 133.900 124, 133.537 124 C 131.732 124, 110.142 134.517, 102.232 139.250 C 98.785 141.313, 95.523 143, 94.982 143 C 94.442 143, 94 143.420, 94 143.933 C 94 144.446, 93.022 145.176, 91.827 145.555 C 90.632 145.934, 88.719 147.134, 87.577 148.222 C 86.435 149.309, 84.696 150.507, 83.714 150.885 C 81.383 151.780, 68.218 162.877, 60.443 170.500 C 54.862 175.972, 44.383 189.225, 41.214 194.818 C 35.087 205.634, 33.236 210.245, 30.058 222.616 C 28.648 228.101, 28.715 239.281, 30.188 244.384 C 33.214 254.872, 43.157 264.813, 52.343 266.536 C 54.366 266.916, 56.269 267.626, 56.570 268.113 C 56.871 268.601, 61.433 269, 66.706 269 C 73.932 269, 77.705 268.486, 82.018 266.913 C 88.485 264.555, 95.624 258.202, 98.485 252.259 C 99.480 250.191, 100.791 247.600, 101.397 246.500 C 102.004 245.400, 102.780 237.075, 103.123 228 C 103.707 212.515, 105.032 202.792, 107.106 198.764 C 107.598 197.809, 108 196.527, 108 195.915 C 108 193.706, 115.399 178.200, 119.411 172 C 121.013 169.525, 126.863 162.999, 132.412 157.498 C 142.493 147.503, 155.052 138.637, 165.643 134.039 C 168.314 132.879, 171.281 131.496, 172.236 130.965 C 173.191 130.434, 174.789 130, 175.786 130 C 176.784 130, 178.104 129.496, 178.720 128.880 C 179.814 127.786, 181.795 127.237, 193 124.924 C 196.025 124.299, 199.281 123.386, 200.236 122.894 C 202.682 121.635, 253.718 121.734, 254.500 123 C 254.840 123.550, 256.554 123.998, 258.309 123.995 C 264.615 123.985, 283.992 131.697, 293.854 138.141 C 301.351 143.039, 315.594 157.175, 320.538 164.623 C 327.303 174.815, 336.961 199.132, 337.035 206.160 C 337.055 207.997, 337.714 210.625, 338.500 212 C 339.341 213.472, 339.944 217.303, 339.965 221.316 C 339.984 225.064, 340.487 229.041, 341.082 230.153 C 342.451 232.711, 343.039 295.707, 341.748 301.451 C 341.247 303.678, 340.605 307.150, 340.321 309.167 C 339.409 315.653, 335.565 317.683, 319.927 319.937 C 316.862 320.379, 313.404 321.249, 312.243 321.870 C 311.082 322.492, 308.414 323.016, 306.316 323.035 C 304.217 323.055, 301.375 323.714, 300 324.500 C 298.625 325.286, 295.614 325.945, 293.309 325.965 C 291.004 325.984, 288.872 326.397, 288.572 326.883 C 288.272 327.369, 285.553 328.075, 282.529 328.453 C 279.505 328.831, 276.773 329.558, 276.457 330.070 C 276.141 330.581, 273.996 331.016, 271.691 331.035 C 269.386 331.055, 266.375 331.714, 265 332.500 C 263.625 333.286, 261.233 333.945, 259.684 333.965 C 258.136 333.984, 256.005 334.462, 254.949 335.028 C 253.893 335.593, 251.110 336.468, 248.764 336.973 C 238.249 339.236, 234.434 340.273, 233.550 341.105 C 233.027 341.597, 231.369 342, 229.865 342 C 228.361 342, 225.863 342.512, 224.315 343.137 C 222.767 343.762, 219.700 344.614, 217.500 345.030 C 213.906 345.709, 210.541 346.753, 204.500 349.064 C 202.660 349.768, 200.209 350.433, 189.716 353.073 C 187.635 353.597, 185.160 354.422, 184.216 354.907 C 183.272 355.392, 178 357.216, 172.500 358.961 C 167 360.706, 161.600 362.492, 160.500 362.930 C 159.400 363.368, 156.025 364.501, 153 365.448 C 149.975 366.395, 146.600 367.519, 145.500 367.945 C 144.400 368.371, 139.675 370.170, 135 371.941 C 113.506 380.086, 94.808 388.510, 79.500 396.944 C 73.945 400.004, 57.141 410.776, 56 412.008 C 55.725 412.305, 52.483 414.922, 48.795 417.824 C 34.497 429.076, 15.604 452.387, 10.560 465 C 5.176 478.464, 4.236 481.890, 3.429 491 C 2.035 506.740, 3.068 532.306, 5.151 533.593 C 5.618 533.882, 6 534.976, 6 536.024 C 6 541.815, 16.899 564.951, 22.006 570 C 22.284 570.275, 23.847 572.300, 25.480 574.500 C 29.122 579.408, 39.082 589.402, 44.560 593.645 C 53.600 600.646, 73.201 611, 77.415 611 C 78.302 611, 79.809 611.418, 80.764 611.928 C 83.682 613.487, 92.725 616, 95.418 616 C 96.816 616, 99.656 616.637, 101.730 617.415 C 111.833 621.208, 168.902 621.013, 178.315 617.154 C 179.863 616.519, 182.826 616, 184.898 616 C 186.971 616, 188.997 615.670, 189.401 615.266 C 189.805 614.862, 192.467 614.003, 195.318 613.357 C 205.423 611.066, 209.512 609.874, 210.450 608.943 C 210.972 608.424, 212.322 607.986, 213.450 607.968 C 214.577 607.951, 216.374 607.276, 217.441 606.468 C 218.509 605.661, 219.938 605, 220.618 605 C 222.971 605, 246.463 593.090, 250.414 589.894 C 251.011 589.411, 256.900 585.149, 263.500 580.423 C 277.640 570.298, 298.387 550.279, 310.576 535 C 315.184 529.225, 319.354 524.020, 319.845 523.433 C 320.336 522.846, 323.585 518.179, 327.066 513.063 C 333.348 503.828, 338.359 498, 340.018 498 C 341.918 498, 342.376 500.993, 342.547 514.512 C 342.652 522.785, 343.196 529.498, 343.863 530.744 C 344.488 531.912, 345.016 536.611, 345.035 541.184 C 345.058 546.500, 345.586 550.402, 346.500 552 C 347.286 553.375, 347.945 556.240, 347.965 558.366 C 348.026 565.056, 353.973 581.175, 359.204 588.826 C 363.183 594.647, 369.250 600.699, 374.560 604.143 C 379.413 607.292, 387.356 611, 389.245 611 C 389.990 611, 391.028 611.400, 391.550 611.889 C 395.434 615.524, 436.057 616.850, 449.500 613.781 C 461.606 611.018, 465.471 609.914, 466.450 608.943 C 466.972 608.424, 468.164 608, 469.097 608 C 471.266 608, 482.156 602.631, 488 598.680 C 497.087 592.537, 502.604 584.637, 499.999 581.499 C 499.315 580.675, 498.316 580, 497.779 580 C 496.807 580, 491.074 582.338, 487.764 584.084 C 486.809 584.588, 484.559 585.011, 482.764 585.024 C 480.969 585.037, 477.700 585.481, 475.500 586.011 C 469.944 587.350, 457.980 585.427, 450.500 581.994 C 443.612 578.833, 435.261 570.670, 432.602 564.500 C 431.653 562.300, 430.230 559.226, 429.439 557.669 C 428.647 556.112, 428 554.029, 428 553.041 C 428 552.053, 427.325 549.629, 426.500 547.654 C 425.675 545.680, 425 541.995, 425 539.466 C 425 536.938, 424.449 533.886, 423.776 532.684 C 422.824 530.984, 422.624 500.126, 422.872 393.384 C 423.148 274.384, 422.996 255.887, 421.723 253.384 C 420.915 251.798, 419.941 247.800, 419.557 244.500 C 418.873 238.619, 418.450 236.635, 415.284 224.500 C 411.683 210.697, 404.936 193.247, 400.308 185.770 C 399.039 183.718, 398 181.813, 398 181.535 C 398 180.872, 391.781 170.646, 390.984 170 C 390.645 169.725, 388.974 167.475, 387.270 165 C 382.891 158.638, 365.450 141.064, 359.500 137.017 C 356.750 135.147, 354.350 133.253, 354.167 132.808 C 353.983 132.364, 353.466 132, 353.017 132 C 352.568 132, 349.822 130.399, 346.914 128.442 C 339.068 123.162, 325.038 116.706, 311.500 112.145 C 298.408 107.735, 292.663 106.386, 280.508 104.870 C 276.113 104.321, 271.803 103.226, 270.930 102.436 C 268.582 100.312, 215.130 100.312, 212.964 102.436 M 777.459 102.536 C 776.336 103.323, 771.386 104.396, 766.459 104.921 C 756.487 105.984, 748.514 107.346, 742.500 109.013 C 727.973 113.040, 716.791 116.674, 710.500 119.413 C 691.372 127.740, 686.380 130.066, 679.500 133.855 C 671.772 138.111, 655.022 148.723, 654 150.010 C 653.725 150.356, 650.800 152.581, 647.500 154.954 C 644.200 157.327, 641.043 159.770, 640.484 160.384 C 639.925 160.998, 637 163.786, 633.984 166.579 C 628.153 171.980, 610.521 190.270, 607.988 193.545 C 600.678 202.996, 597.133 207.829, 596.160 209.672 C 595.529 210.867, 594.428 212.442, 593.712 213.172 C 592.396 214.516, 587.791 221.948, 582.048 232 C 580.320 235.025, 576.656 242.225, 573.907 248 C 568.485 259.387, 567.989 260.510, 565.732 266.500 C 559.883 282.026, 557.989 287.948, 557.995 290.691 C 557.998 291.896, 557.550 293.160, 557 293.500 C 556.450 293.840, 556 295.456, 556 297.091 C 556 298.726, 555.325 301.680, 554.500 303.654 C 553.675 305.629, 553 309.004, 553 311.154 C 553 313.305, 552.325 316.680, 551.500 318.654 C 550.675 320.629, 550 325.092, 550 328.573 C 550 332.054, 549.325 337.494, 548.500 340.661 C 546.365 348.860, 546.365 391.140, 548.500 399.339 C 549.325 402.506, 550 407.521, 550 410.484 C 550 413.446, 550.498 417.137, 551.106 418.685 C 551.715 420.233, 552.596 423.975, 553.063 427 C 554.270 434.807, 556.402 443.736, 557.266 444.599 C 557.670 445.003, 558.003 446.496, 558.006 447.917 C 558.010 449.338, 558.685 451.789, 559.506 453.364 C 560.328 454.940, 561 456.837, 561 457.580 C 561 458.324, 561.740 460.635, 562.645 462.716 C 565.167 468.519, 566.698 472.126, 568.495 476.500 C 573.638 489.021, 587.477 513.651, 594.141 522.144 C 595.713 524.148, 597 526.286, 597 526.894 C 597 527.502, 597.374 528, 597.830 528 C 598.287 528, 600.041 529.913, 601.729 532.250 C 604.616 536.251, 606.686 538.785, 610.915 543.500 C 615.500 548.610, 633.872 565.892, 637 568.036 C 638.925 569.356, 641.850 571.695, 643.500 573.233 C 645.991 575.556, 653.440 580.554, 661.797 585.510 C 662.734 586.065, 666.337 588.203, 669.804 590.260 C 673.271 592.317, 676.318 594, 676.575 594 C 676.832 594, 680.070 595.407, 683.771 597.126 C 692.927 601.379, 693.516 601.627, 701.500 604.595 C 705.350 606.025, 709.625 607.418, 711 607.689 C 712.375 607.960, 714.918 608.816, 716.651 609.591 C 718.384 610.366, 720.882 611, 722.201 611 C 723.521 611, 725.028 611.400, 725.550 611.889 C 726.749 613.011, 736.217 614.883, 746.108 615.954 C 750.292 616.407, 754.790 617.352, 756.103 618.055 C 757.915 619.025, 767.051 619.326, 793.995 619.306 C 824.241 619.284, 830.209 619.037, 834.285 617.640 C 836.917 616.738, 841.535 616, 844.549 616 C 847.562 616, 850.809 615.598, 851.764 615.106 C 853.371 614.278, 858.534 613.061, 868.537 611.152 C 870.757 610.729, 873.197 609.996, 873.960 609.525 C 874.722 609.054, 876.956 608.336, 878.923 607.929 C 890.689 605.497, 924.356 589.422, 933.339 581.946 C 933.978 581.415, 938.100 578.264, 942.500 574.943 C 959.703 561.961, 983.552 536.322, 996.371 517.029 C 1003.262 506.658, 1003.572 503.918, 998.174 501.074 C 995.992 499.924, 995.150 500.527, 984.674 510.724 C 978.528 516.706, 971.250 523.362, 968.500 525.516 C 965.750 527.670, 963.275 529.701, 963 530.030 C 961.492 531.835, 945.466 542.968, 936.674 548.320 C 920.613 558.095, 903.753 565.975, 892.500 568.967 C 890.850 569.405, 888.233 570.267, 886.685 570.882 C 885.137 571.497, 882.576 572, 880.994 572 C 879.412 572, 877.840 572.450, 877.500 573 C 877.160 573.550, 874.996 574.020, 872.691 574.044 C 870.386 574.068, 866.700 574.736, 864.500 575.529 C 861.355 576.662, 854.050 576.973, 830.309 576.985 C 812.757 576.994, 799.877 576.611, 799.543 576.070 C 799.227 575.558, 796.388 574.861, 793.234 574.521 C 790.080 574.181, 786.719 573.474, 785.764 572.951 C 784.809 572.428, 782.866 572, 781.448 572 C 780.029 572, 777.886 571.471, 776.684 570.825 C 775.483 570.179, 772.925 569.323, 771 568.923 C 761.426 566.935, 737.711 555.839, 724.706 547.262 C 707.712 536.056, 688.104 518.573, 681.230 508.500 C 679.728 506.300, 677.969 504.050, 677.319 503.500 C 674.411 501.037, 660.629 479.145, 656.085 469.771 C 649.502 456.192, 645.398 445.150, 641.487 430.500 C 637.939 417.207, 636.843 412.208, 636.101 405.917 C 635.674 402.297, 634.926 398.697, 634.439 397.917 C 633.951 397.138, 633.236 391.775, 632.848 386 C 632.461 380.225, 631.681 372.125, 631.116 368 C 629.659 357.372, 629.756 341.041, 631.294 338 L 632.558 335.500 824.529 334.866 C 935.158 334.501, 1017.983 333.844, 1020 333.317 C 1023.287 332.457, 1023.492 332.161, 1023.376 328.451 C 1023.308 326.278, 1022.756 322.700, 1022.150 320.500 C 1021.544 318.300, 1021.037 312.202, 1021.024 306.950 C 1021.011 301.681, 1020.532 296.932, 1019.956 296.356 C 1019.381 295.781, 1018.522 292.204, 1018.045 288.406 C 1017.569 284.608, 1016.450 278.575, 1015.558 275 C 1014.666 271.425, 1013.576 266.890, 1013.134 264.923 C 1012.693 262.956, 1011.973 260.765, 1011.534 260.055 C 1011.095 259.345, 1010.381 257.355, 1009.947 255.632 C 1005.678 238.697, 988.501 205.438, 974.036 186.099 C 970.991 182.028, 967.203 176.853, 965.618 174.599 C 961.865 169.260, 947.157 154.855, 938.970 148.500 C 927.652 139.713, 913.869 131.146, 900.333 124.482 C 893.091 120.917, 886.694 118, 886.117 118 C 885.540 118, 883.365 117.263, 881.284 116.361 C 873.690 113.073, 865.838 110.629, 856 108.491 C 851.875 107.595, 846.700 106.464, 844.500 105.977 C 842.300 105.491, 837.800 104.811, 834.500 104.466 C 831.200 104.121, 827.503 103.200, 826.285 102.419 C 823.052 100.348, 780.436 100.449, 777.459 102.536 M 779.813 129.683 C 780.534 129.972, 781.397 129.936, 781.729 129.604 C 782.061 129.272, 781.471 129.036, 780.417 129.079 C 779.252 129.127, 779.015 129.364, 779.813 129.683 M 774.521 133.966 C 774.169 134.535, 772.443 135, 770.684 135 C 768.926 135, 765.915 135.492, 763.993 136.093 C 762.072 136.694, 758.925 137.550, 757 137.995 C 746.403 140.444, 723.181 151.339, 712.614 158.819 C 705.525 163.837, 690.943 175.966, 688.361 178.993 C 687.184 180.372, 684.829 183.075, 683.127 185 C 681.425 186.925, 680.025 188.820, 680.016 189.211 C 680.007 189.602, 679.184 190.727, 678.186 191.711 C 676.093 193.776, 667.402 205.851, 664.304 211 C 657.605 222.131, 649.978 238.888, 646.097 251 C 644.951 254.575, 643.564 258.874, 643.014 260.552 C 641.730 264.470, 640.133 271.894, 638.938 279.500 C 638.419 282.800, 637.579 286.625, 637.072 288 C 636.564 289.375, 635.937 294.550, 635.679 299.500 C 635.421 304.450, 634.911 309.229, 634.547 310.121 C 634.165 311.057, 634.573 312.430, 635.514 313.371 C 637.004 314.861, 649.415 315, 781.203 315 C 924.699 315, 925.277 314.992, 928.582 312.950 C 930.406 311.822, 932.903 309.275, 934.129 307.291 C 936.183 303.967, 936.347 302.572, 936.204 289.591 C 936.106 280.647, 935.492 273.382, 934.525 269.701 C 933.686 266.512, 932.993 262.237, 932.985 260.201 C 932.977 258.166, 932.321 254.700, 931.529 252.500 C 930.736 250.300, 930.068 246.839, 930.044 244.809 C 930.020 242.779, 929.601 240.871, 929.113 240.570 C 928.626 240.269, 927.918 238.330, 927.542 236.261 C 925.657 225.912, 916.677 203.390, 910.293 193 C 902.405 180.162, 899.472 176.366, 890.553 167.451 C 880.561 157.464, 866.301 147.538, 856.034 143.422 C 852.440 141.982, 848.022 140.173, 846.216 139.402 C 844.410 138.631, 841.912 138, 840.666 138 C 839.420 138, 837.957 137.557, 837.416 137.016 C 835.323 134.923, 822.548 133.681, 799.330 133.314 C 783.365 133.062, 774.943 133.284, 774.521 133.966 M 345 294 C 345 295.650, 345.450 297, 346 297 C 346.550 297, 347 295.650, 347 294 C 347 292.350, 346.550 291, 346 291 C 345.450 291, 345 292.350, 345 294 M 324.500 333.721 C 321.200 334.518, 317.825 335.435, 317 335.758 C 315.092 336.505, 305.716 338.831, 300.500 339.850 C 298.300 340.280, 295.517 341.164, 294.316 341.816 C 293.114 342.467, 290.617 343, 288.766 343 C 286.915 343, 284.954 343.446, 284.409 343.991 C 283.864 344.536, 281.411 345.408, 278.959 345.928 C 271.098 347.594, 265.553 349.013, 263.500 349.885 C 261.458 350.752, 254.493 352.695, 250 353.650 C 248.625 353.943, 246.082 354.816, 244.349 355.591 C 242.616 356.366, 240.472 357, 239.585 357 C 238.698 357, 237.191 357.394, 236.236 357.876 C 235.281 358.357, 231.800 359.526, 228.500 360.474 C 225.200 361.421, 221.022 362.827, 219.216 363.598 C 217.410 364.369, 215.324 365, 214.580 365 C 213.837 365, 211.940 365.672, 210.364 366.494 C 208.789 367.315, 206.739 367.990, 205.809 367.994 C 204.879 367.997, 203.840 368.450, 203.500 369 C 203.160 369.550, 201.870 370, 200.632 370 C 199.395 370, 197.509 370.661, 196.441 371.468 C 195.374 372.276, 193.749 372.951, 192.831 372.968 C 191.913 372.986, 189.888 373.647, 188.331 374.439 C 186.774 375.230, 183.700 376.611, 181.500 377.506 C 146.463 391.774, 127.739 403.197, 109.401 421.491 C 97.505 433.359, 93.891 437.979, 89.467 446.973 C 80.963 464.258, 79.716 469.879, 79.598 491.429 C 79.512 507.364, 79.768 510.446, 81.763 517.500 C 85.032 529.053, 88.702 537.554, 93.756 545.278 C 98.510 552.543, 112.617 567.435, 116.278 569.052 C 117.500 569.592, 120.750 571.391, 123.500 573.049 C 126.250 574.708, 129.175 576.304, 130 576.596 C 130.825 576.888, 132.850 577.719, 134.500 578.442 C 136.150 579.164, 140.200 580.527, 143.500 581.470 C 146.800 582.413, 150.995 583.634, 152.823 584.183 C 157.340 585.541, 202.978 585.422, 204.352 584.048 C 204.928 583.472, 206.998 582.997, 208.950 582.994 C 210.903 582.990, 213.789 582.315, 215.364 581.494 C 216.940 580.672, 219.501 580, 221.055 580 C 222.610 580, 224.129 579.600, 224.432 579.111 C 224.734 578.622, 226.208 577.914, 227.708 577.537 C 230.208 576.910, 236.002 574.439, 245 570.163 C 263.761 561.248, 289.797 539.133, 304.103 519.962 C 309.209 513.120, 323 491.601, 323 490.476 C 323 490.217, 324.378 486.967, 326.062 483.253 C 331.462 471.346, 332 469.967, 332 468.025 C 332 466.976, 332.398 465.872, 332.885 465.571 C 333.371 465.271, 334.072 463.005, 334.442 460.536 C 334.813 458.067, 335.540 455.785, 336.058 455.464 C 336.576 455.144, 337 452.629, 337 449.875 C 337 447.122, 337.553 443.886, 338.229 442.684 C 338.904 441.483, 339.760 435.100, 340.131 428.500 C 340.501 421.900, 341.271 414.250, 341.842 411.500 C 342.962 406.109, 343.398 342.043, 342.358 335.750 L 341.738 332 336.119 332.136 C 333.029 332.210, 327.800 332.923, 324.500 333.721 M 345 354 C 345 354.550, 345.450 355, 346 355 C 346.550 355, 347 354.550, 347 354 C 347 353.450, 346.550 353, 346 353 C 345.450 353, 345 353.450, 345 354 M 345 366.500 C 345 370.167, 345.436 373, 346 373 C 346.564 373, 347 370.167, 347 366.500 C 347 362.833, 346.564 360, 346 360 C 345.436 360, 345 362.833, 345 366.500 M 345 391.441 C 345 394.434, 345.450 397.160, 346 397.500 C 346.625 397.886, 347 395.844, 347 392.059 C 347 388.686, 346.557 386, 346 386 C 345.450 386, 345 388.448, 345 391.441 M 343.158 435 C 343.158 436.375, 343.385 436.938, 343.662 436.250 C 343.940 435.563, 343.940 434.438, 343.662 433.750 C 343.385 433.063, 343.158 433.625, 343.158 435 M 348.079 539.583 C 348.127 540.748, 348.364 540.985, 348.683 540.188 C 348.972 539.466, 348.936 538.603, 348.604 538.271 C 348.272 537.939, 348.036 538.529, 348.079 539.583 M 855.813 580.683 C 856.534 580.972, 857.397 580.936, 857.729 580.604 C 858.061 580.272, 857.471 580.036, 856.417 580.079 C 855.252 580.127, 855.015 580.364, 855.813 580.683 M 811.250 615.689 C 812.212 615.941, 813.788 615.941, 814.750 615.689 C 815.712 615.438, 814.925 615.232, 813 615.232 C 811.075 615.232, 810.288 615.438, 811.250 615.689 M 647.279 813.982 C 643.476 816.033, 637.938 820.176, 634.075 823.862 C 627.260 830.365, 618.888 836.062, 607 842.287 C 599.638 846.142, 595.844 847.858, 585.500 852.009 C 570 858.230, 549.694 863.571, 528 867.133 C 517.933 868.786, 464.980 869.412, 459.005 867.949 C 456.533 867.343, 451.358 866.458, 447.505 865.981 C 427.388 863.491, 395.937 854.127, 379 845.585 C 367.437 839.753, 356.227 833.616, 353.500 831.624 C 349.620 828.790, 345.578 826.924, 340.068 825.424 C 329.700 822.600, 321 830.165, 321 842.005 C 321 852.982, 326.774 860.537, 345.622 874.222 C 365.976 889, 390.763 901.153, 415 908.237 C 433.269 913.577, 448.293 917.019, 453.282 917.008 C 455.362 917.004, 458.553 917.622, 460.373 918.383 C 465.248 920.419, 521.586 920.446, 525.503 918.414 C 527.002 917.636, 530.090 916.980, 532.364 916.956 C 534.639 916.932, 538.300 916.264, 540.500 915.471 C 542.700 914.679, 545.385 914.023, 546.467 914.015 C 547.548 914.007, 550.248 913.367, 552.467 912.593 C 554.685 911.820, 559.476 910.268, 563.113 909.145 C 578.318 904.451, 603.966 892.922, 618.500 884.247 C 628.873 878.056, 650.357 861.462, 656.274 855.071 C 662.734 848.094, 666.714 841.753, 669.149 834.561 C 670.803 829.675, 670.791 829.522, 668.420 824.842 C 665.626 819.328, 663.142 816.797, 657.787 814.006 C 653.263 811.648, 651.615 811.644, 647.279 813.982" stroke="none" fill="black" fill-rule="evenodd"/>
</svg>